<?xml version="1.0" encoding="UTF-8" standalone="no"?>
<svg
   width="24"
   height="24"
   viewBox="0 0 24 24"
   version="1.1"
   id="svg4"
   sodipodi:docname="iconmonstr-user-19.svg"
   inkscape:version="1.1.1 (eb90963e84, 2021-10-02)"
   xmlns:inkscape="http://www.inkscape.org/namespaces/inkscape"
   xmlns:sodipodi="http://sodipodi.sourceforge.net/DTD/sodipodi-0.dtd"
   xmlns="http://www.w3.org/2000/svg"
   xmlns:svg="http://www.w3.org/2000/svg">
  <defs
     id="defs8" />
  <sodipodi:namedview
     id="namedview6"
     pagecolor="#ffffff"
     bordercolor="#666666"
     borderopacity="1.0"
     inkscape:pageshadow="2"
     inkscape:pageopacity="0.0"
     inkscape:pagecheckerboard="0"
     showgrid="false"
     inkscape:zoom="36.291667"
     inkscape:cx="11.986223"
     inkscape:cy="12.013777"
     inkscape:window-width="1920"
     inkscape:window-height="1043"
     inkscape:window-x="0"
     inkscape:window-y="0"
     inkscape:window-maximized="1"
     inkscape:current-layer="svg4" />
  <path
     d="M12 0c-6.627 0-12 5.373-12 12s5.373 12 12 12 12-5.373 12-12-5.373-12-12-12zm0 22c-3.123 0-5.914-1.441-7.749-3.69.259-.588.783-.995 1.867-1.246 2.244-.518 4.459-.981 3.393-2.945-3.155-5.82-.899-9.119 2.489-9.119 3.322 0 5.634 3.177 2.489 9.119-1.035 1.952 1.1 2.416 3.393 2.945 1.082.25 1.61.655 1.871 1.241-1.836 2.253-4.628 3.695-7.753 3.695z"
     id="path2"
     style="fill:#2ecc71;fill-opacity:1" />
</svg>
